<?xml version="1.0" encoding="utf-8"?>
<!-- Generator: Adobe Illustrator 25.0.0, SVG Export Plug-In . SVG Version: 6.00 Build 0)  -->
<svg version="1.1" id="Layer_1" xmlns="http://www.w3.org/2000/svg" xmlns:xlink="http://www.w3.org/1999/xlink" x="0px" y="0px"
	 viewBox="0 0 128 128" style="enable-background:new 0 0 128 128;" xml:space="preserve">
<style type="text/css">
	.st0{fill:#2867B2;}
	.st1{fill:#FFFFFF;}
</style>
<g>
	<circle class="st0" cx="64" cy="64" r="64"/>
</g>
<g>
	<path class="st1" d="M44.1,95.9H29.2v-48h14.9V95.9z M36.7,41.4c-4.8,0-8.7-3.9-8.7-8.7s3.9-8.7,8.7-8.7s8.6,3.9,8.6,8.7
		C45.3,37.5,41.4,41.4,36.7,41.4z M100,95.9H85.1V72.6c0-5.6-0.1-12.7-7.8-12.7c-7.8,0-8.9,6.1-8.9,12.3v23.7H53.5v-48h14.3v6.6H68
		c2-3.8,6.9-7.8,14.1-7.8c15.1,0,17.9,9.9,17.9,22.9V95.9L100,95.9z"/>
</g>
</svg>
