<svg xmlns="http://www.w3.org/2000/svg" viewBox="0 0 1169.91 875.63"><defs><style>.cls-1{fill:#b89874;}.cls-2{fill:#7d287d;}.cls-3{fill:#0c4761;}.cls-4{fill:#d9b4a8;}.cls-5{fill:#cb9472;}.cls-6{fill:#2867b2;}.cls-7{fill:#231f20;}.cls-8{fill:#fcea01;}.cls-9{fill:#dbe3eb;}.cls-10{fill:#ec222c;}.cls-11{fill:#0f1826;}</style></defs><g id="Layer_2" data-name="Layer 2"><polygon class="cls-1" points="1169.91 830.79 676.79 779.63 385.4 779.63 -1.53 845.74 -19.88 875.63 1169.91 875.63 1169.91 830.79"/><path class="cls-2" d="M213.84,453.27s-83.55,137.54-16.11,358c94.84-1,280.79-40.42,280.79-40.42L496.12,669,232.54,433.77Z"/><path class="cls-3" d="M317.27,311.75S218.73,378.3,213.84,453.27c31,24.43,26.81-8.17,51.71,66.81,20,24.46,88.48,40.76,88.48,40.76Z"/><path class="cls-4" d="M311.76,433.77S373.15,706.1,367,724.49,467.9,750,467.9,750l-40.56-286.7Z"/><path class="cls-5" d="M367,724.49s41.15-63.29,100.89,7c9.76,29.89,0,18.53,0,18.53Z"/><path class="cls-4" d="M676.79,489.45,597.24,675.06s39.54,43.33,79.55,44c32.88-56.84,92-174.4,92-174.4Z"/><path class="cls-5" d="M517.31,626.88l74.25,41s32,32.12,69.54,30.34C702.26,634.18,744,553.7,744,553.7L768.47,543S670,763.35,661.1,773.64c-15.12,5.47-43.61-15.26-43.61-15.26l-42.8-7.16L596.91,719V691.13l-18.5-26.49Z"/><path class="cls-6" d="M776.43,536.41s113.5-199.12-32-260.06-289.33-65.61-289.33-65.61S325,198.62,285.07,361.47L257.47,426l78.4,66.47s67,38.57,94.22,23.72C438.62,558.84,453,678.5,453,678.5S582.71,709,597.24,675.06,667.62,524,667.62,524,755,581.51,776.43,536.41Z"/><path class="cls-7" d="M552.86,246.3S501.12,94.37,637.63,51.44C784.05,39.33,797.27,178,765.34,235.29S552.86,246.3,552.86,246.3Z"/><path class="cls-7" d="M661.43,50.69S561.91-57.55,523.81,174.74c-28.19,69.35-55.72,66-55.72,66s25.32,3.3,46.24-29.72S463.69,265,468.09,344.28s39.64,109,39.64,109,12.11-131,51.74-164-19.82-186,37.43-203.67S661.43,50.69,661.43,50.69Z"/><path class="cls-4" d="M558.91,233.63s31.76,26.75,33.44-18.38,41.79-3.35,58.5,0,98.62,17.13,112,2.71,0,34.06,0,34.06-10,11.7-10,36.78-22.48,83.57-89,140.41c-61.47,48.47-104.94-117.39-104.94-117.39l-6.68-39.74s-28.42-10-28.42-63.52c6.69-31.76,23.4-24.93,26.75-14.14S558.91,233.63,558.91,233.63Z"/><path class="cls-8" d="M332.68,726.47s156.33,88,185,149.16h554.86s-121.1-66.6-241.1-36.87c-62.6-28.34-213.57-80.2-213.57-80.2S371.21,715.46,332.68,726.47Z"/><path class="cls-9" d="M332.68,726.47l-9.91,13.21s148.63,86.94,168.44,136h26.42S519.84,834.36,332.68,726.47Z"/><path class="cls-4" d="M576.71,751.52,596.91,719V690.58l-9.89-32c-1.19-3.84-7.38-11.46-10.9-13.41l-25.6-16.62s-29.85-13.09-62.35,19.72c-25.89,23.31-35.38,30.21-35.38,30.21s-7.77,16.4-14.67,25-20.71,30.76,0,27.89S483,690,483,690s-6.85,41.24-6.85,52.76,0,28.59,4.71,32.47,22,14.15,22.52,0-3.14-23-1-30.9"/><path class="cls-10" d="M865.89,798.84,792.53,807s-65.2-29.34-44-96.18,85.4-271.31,98.94-265.25,192,22.36,245.39,79.41c30.57,48.91,77.06,101.24,77.06,101.24v187.3s-79.19,21.19-199.76,0"/><path class="cls-4" d="M901.75,790.69s0,13,31,0c19.56,5.79,37.42,19.56,37.42,19.56s16.37-6.52,19.63-75c-29.34-8.15-76.62-3.26-79.88,16.3S900.12,769.49,901.75,790.69Z"/><path class="cls-4" d="M807.21,803.63S790.9,687.89,865.89,727c11.41-14.67,29.34-9.18,24.45,31.27s-35.86,45.35-35.86,45.35Z"/><path class="cls-11" d="M877.3,348s8.15,74.95,135.3,73.81c-42.45,39.7,8.15,80.36,8.15,80.36l66.84-37.49s89.66-167.91-14.67-216.81S883.82,312.82,877.3,348Z"/><path class="cls-4" d="M887.08,326.1S830,430.43,852.85,523.34c14.42,29.35,4.39,11.41,14.42,44s50.78,35.86,80.13,21.19,55.42-6.52,94.55-60.32c17.93,1.63,45.64-11.41,50.53-47.27s-40.75-11.41-42.38-6.52-27.72,24.45-27.72,24.45-34.23-30.32-11.41-77.1C976.74,421.79,859.37,394.56,887.08,326.1Z"/></g></svg>