<svg id="Layer_3_copy_4" data-name="Layer 3 copy 4" xmlns="http://www.w3.org/2000/svg" viewBox="0 0 844.26 1076.89"><defs><style>.cls-1{fill:#fdeb01;}</style></defs><rect class="cls-1" x="56.61" y="202.26" width="968.76" height="677.58" transform="translate(-209.23 970.65) rotate(-79.4)"/><path d="M496.3,368.35a36.81,36.81,0,0,0,1.13-4.51c2.71-15.2,22.82-104.78,106.82,2.1,91.4,116.29-165.54,329.3-165.48,436.9,0,81.78,143.42,104.78,234.82-14.58l13.2-17.63c5.77-6.25,9.62-1.14,8.53,3.9-11.46,53.05-56.86,192.18-215.56,169.81,0,0-201.71-24.48-129.22-217.28C422.68,535.18,447.49,536,496.3,368.35Z" transform="translate(-118.86 -2.61)"/><path d="M307.76,572.79c.32-5.79,3.19-10.54,7-11.49L734.5,457.5s71.09-20.15,18.79,75.54c-3.9,7.14-9.56,11.67-15.69,12.58-129.88,19.29-400.7,68-411.33,69.92a4.2,4.2,0,0,0-.59.14C323.27,616.42,305.15,620.41,307.76,572.79Z" transform="translate(-118.86 -2.61)"/><circle cx="465.94" cy="191.52" r="78.88"/></svg>