<svg id="Layer_3_copy" data-name="Layer 3 copy" xmlns="http://www.w3.org/2000/svg" viewBox="0 0 1080 1080"><defs><style>.cls-1{fill:#fff;}.cls-2{fill:#f7ec13;}</style></defs><rect width="1080" height="1080"/><path class="cls-1" d="M490.72,355.91a43.3,43.3,0,0,0,1.28-5.09c3.05-17.14,25.72-118.15,120.45,2.37,103.07,131.14-186.68,371.35-186.6,492.69,0,92.22,161.72,118.15,264.79-16.44l14.9-19.89c6.5-7,10.84-1.28,9.61,4.4-12.92,59.82-64.11,216.72-243.09,191.49,0,0-227.46-27.61-145.71-245C407.7,544,435.68,545,490.72,355.91Z"/><path class="cls-1" d="M278.11,586.46c.36-6.53,3.6-11.89,7.91-13l473.31-117s80.17-22.73,21.2,85.18c-4.41,8.06-10.78,13.16-17.7,14.19C616.37,577.57,311,632.5,299,634.66a5.33,5.33,0,0,0-.66.17C295.6,635.66,275.16,640.15,278.11,586.46Z"/><circle class="cls-2" cx="590.52" cy="159.45" r="88.96"/></svg>