<svg id="Layer_3" data-name="Layer 3" xmlns="http://www.w3.org/2000/svg" xmlns:xlink="http://www.w3.org/1999/xlink" viewBox="0 0 562.94 1006.66"><defs><style>.cls-1{fill:url(#linear-gradient);}.cls-2{fill:url(#linear-gradient-2);}.cls-3{fill:url(#linear-gradient-3);}</style><linearGradient id="linear-gradient" x1="280.86" y1="659.79" x2="716.36" y2="659.79" gradientUnits="userSpaceOnUse"><stop offset="0" stop-color="#f15a29"/><stop offset="1" stop-color="#2e3192"/></linearGradient><linearGradient id="linear-gradient-2" x1="258.53" y1="525.13" x2="821.47" y2="525.13" xlink:href="#linear-gradient"/><linearGradient id="linear-gradient-3" x1="257.44" y1="163.03" x2="392.5" y2="27.97" xlink:href="#linear-gradient"/></defs><path class="cls-1" d="M476.33,342.49a41.65,41.65,0,0,0,1.42-5.62c3.33-18.64,27.75-126.57,129.3,2.63C717.7,480.29,366.66,769.27,389.56,865.6S580.34,995.28,691,850.78l12.9-17.22c4.48-6,14-1.59,12.27,5.69-15.61,67.57-72.57,226.88-259.83,200.49,0,0-244.2-29.64-156.44-263.06C387.22,544.42,410.32,543.28,476.33,342.49Z" transform="translate(-258.53 -36)"/><path class="cls-2" d="M258.84,554.93a10.2,10.2,0,0,1,8.49-9.28l508.14-83.87s86.07-16.28,22.75,61a28.15,28.15,0,0,1-19,10.17c-157.24,15.58-485.1,54.94-498,56.49-.24,0-.47.07-.71.12C277.62,590.18,255.68,593.4,258.84,554.93Z" transform="translate(-258.53 -36)"/><circle class="cls-3" cx="324.97" cy="95.5" r="95.5"/></svg>